<?xml version="1.0" encoding="utf-8"?>
<!-- Generator: Adobe Illustrator 21.0.2, SVG Export Plug-In . SVG Version: 6.00 Build 0)  -->
<svg version="1.1" xmlns="http://www.w3.org/2000/svg" xmlns:xlink="http://www.w3.org/1999/xlink" x="0px" y="0px" width="70px"
	 height="48px" viewBox="0 0 70 48" style="enable-background:new 0 0 70 48;" xml:space="preserve">
<style type="text/css">
	.st0{fill:#FCFCFC;}
	.st1{fill:#005098;}
	.st2{fill:#F6A500;}
	.st3{fill:#0A5296;}
	.st4{fill:#F4A428;}
</style>
<g id="visa_1_">
	<g id="visa">
		<path class="st0" d="M66,48H4c-2.2,0-4-1.8-4-4V4c0-2.2,1.8-4,4-4h62c2.2,0,4,1.8,4,4v40C70,46.2,68.2,48,66,48z"/>
		<g>
			<polygon class="st1" points="25.7,32.3 28.6,15.7 33.1,15.7 30.3,32.3 			"/>
			<path class="st1" d="M46.7,16.1c-0.9-0.3-2.3-0.7-4.1-0.7c-4.5,0-7.6,2.3-7.7,5.5c0,2.4,2.3,3.7,4,4.5c1.8,0.8,2.4,1.3,2.3,2.1
				c0,1.1-1.4,1.6-2.7,1.6c-1.8,0-2.8-0.3-4.3-0.9L33.7,28l-0.6,3.7c1.1,0.5,3,0.9,5.1,0.9c4.8,0,7.9-2.2,7.9-5.7
				c0-1.9-1.2-3.3-3.8-4.5c-1.6-0.8-2.6-1.3-2.5-2.1c0-0.7,0.8-1.4,2.6-1.4c1.5,0,2.6,0.3,3.4,0.6l0.4,0.2L46.7,16.1"/>
			<path class="st1" d="M58.3,15.7h-3.5c-1.1,0-1.9,0.3-2.4,1.4l-6.7,15.2h4.8c0,0,0.8-2,1-2.5c0.5,0,5.1,0,5.8,0
				c0.1,0.6,0.6,2.5,0.6,2.5H62L58.3,15.7 M52.7,26.4c0.4-1,1.8-4.6,1.8-4.6c0,0,0.4-1,0.6-1.6l0.3,1.4c0,0,0.9,4,1,4.8H52.7z"/>
			<path class="st1" d="M21.9,15.7l-4.4,11.3L17,24.8c-0.8-2.7-3.4-5.5-6.3-7l4.1,14.5l4.8,0l7.1-16.6H21.9"/>
			<path class="st2" d="M13.4,15.7H6.1L6,16.1c5.7,1.4,9.5,4.7,11,8.7l-1.6-7.6C15.1,16.1,14.4,15.7,13.4,15.7"/>
		</g>
		<path class="st3" d="M70,10H0V4c0-2.2,1.8-4,4-4h62c2.2,0,4,1.8,4,4V10z"/>
		<path class="st4" d="M0,38h70v6c0,2.2-1.8,4-4,4H4c-2.2,0-4-1.8-4-4L0,38z"/>
	</g>
</g>
<g id="dinner-club">
</g>
<g id="jcb_1_">
</g>
<g id="amex">
</g>
<g id="master_2_">
</g>
</svg>
